<?xml version="1.0" standalone="no"?>
<!DOCTYPE svg PUBLIC "-//W3C//DTD SVG 20010904//EN"
 "http://www.w3.org/TR/2001/REC-SVG-20010904/DTD/svg10.dtd">
<svg version="1.0" xmlns="http://www.w3.org/2000/svg"
 width="564.000000pt" height="564.000000pt" viewBox="0 0 564.000000 564.000000"
 preserveAspectRatio="xMidYMid meet">
<metadata>
Created by potrace 1.11, written by Peter Selinger 2001-2013
</metadata>
<g transform="translate(0.000000,564.000000) scale(0.100000,-0.100000)"
fill="#000000" stroke="none">
<path d="M2813 5633 l-2813 -3 0 -2815 0 -2815 2815 0 2815 0 0 2820 c0 1551
-1 2819 -2 2818 -2 -2 -1269 -4 -2815 -5z m2 -1821 c245 -71 474 -237 602
-434 61 -94 135 -253 131 -281 -6 -44 -31 -21 -68 65 -102 237 -281 429 -505
541 -142 71 -346 107 -498 88 -240 -30 -426 -120 -593 -286 -317 -315 -381
-792 -157 -1176 100 -172 247 -305 434 -393 109 -51 186 -72 321 -88 268 -30
570 77 767 273 90 90 138 157 197 272 27 56 56 103 62 105 43 14 1 -111 -79
-234 -133 -203 -340 -356 -584 -430 -84 -26 -102 -28 -275 -28 -173 0 -191 2
-273 27 -189 58 -316 134 -452 271 -195 195 -294 435 -295 711 0 288 98 522
306 729 131 130 299 223 489 273 80 20 107 23 245 19 117 -3 172 -9 225 -24z
m235 -710 c46 -34 98 -122 141 -240 48 -130 77 -184 113 -207 39 -26 82 1 198
118 115 118 149 135 223 116 41 -11 109 -73 189 -172 99 -124 163 -116 331 44
70 67 77 71 92 56 15 -15 14 -19 -10 -50 -29 -38 -162 -149 -205 -171 -93 -47
-147 -25 -267 110 -98 110 -127 134 -168 134 -46 0 -79 -24 -167 -120 -135
-148 -207 -166 -288 -70 -18 21 -60 114 -87 190 -27 80 -69 168 -93 196 -43
51 -115 59 -174 19 -89 -60 -267 -351 -308 -503 -12 -45 -33 -63 -52 -44 -9 9
-9 39 0 114 6 57 15 148 18 203 l6 100 -27 -30 c-15 -16 -43 -49 -63 -73 -34
-42 -70 -53 -79 -26 -6 17 145 173 174 180 13 4 29 2 35 -4 12 -12 11 -119 -1
-204 -4 -32 -6 -58 -4 -58 1 0 21 37 44 83 144 286 303 401 429 309z"/>
</g>
</svg>
