<?xml version="1.0" standalone="no"?>
<!DOCTYPE svg PUBLIC "-//W3C//DTD SVG 20010904//EN"
 "http://www.w3.org/TR/2001/REC-SVG-20010904/DTD/svg10.dtd">
<svg version="1.0" xmlns="http://www.w3.org/2000/svg"
 width="700.000000pt" height="700.000000pt" viewBox="0 0 700.000000 700.000000"
 preserveAspectRatio="xMidYMid meet">
<metadata>
Created by potrace 1.11, written by Peter Selinger 2001-2013
</metadata>
<g transform="translate(0.000000,700.000000) scale(0.100000,-0.100000)"
fill="#000000" stroke="none">
<path d="M4790 3645 l0 -1065 130 0 130 0 0 254 0 254 84 76 85 77 303 -331
303 -330 174 0 175 0 -30 33 c-30 31 -650 703 -703 760 l-25 28 354 354 355
355 -167 0 -166 0 -363 -372 c-199 -205 -366 -374 -371 -376 -4 -2 -8 300 -8
672 l0 676 -130 0 -130 0 0 -1065z"/>
<path d="M2230 4495 l0 -135 145 0 145 0 0 135 0 135 -145 0 -145 0 0 -135z"/>
<path d="M1289 4616 c-2 -2 4 -287 13 -633 9 -345 17 -676 17 -735 l1 -108
119 0 119 0 6 133 c3 72 10 353 16 622 5 270 12 543 16 608 l5 117 -154 0
c-84 0 -156 -2 -158 -4z"/>
<path d="M3625 4134 c-75 -18 -223 -91 -293 -144 -29 -22 -55 -40 -57 -40 -3
0 -5 36 -5 80 l0 80 -130 0 -130 0 0 -765 0 -765 130 0 130 0 0 569 0 569 63
40 c166 108 283 148 414 139 98 -6 158 -31 206 -88 69 -80 77 -160 77 -756 l0
-473 130 0 131 0 -4 588 c-3 574 -3 588 -25 653 -41 124 -129 232 -226 279
-105 50 -283 65 -411 34z"/>
<path d="M2240 3345 l0 -765 135 0 135 0 0 765 0 765 -135 0 -135 0 0 -765z"/>
<path d="M1300 2725 l0 -145 140 0 140 0 0 145 0 145 -140 0 -140 0 0 -145z"/>
</g>
</svg>
